<?xml version="1.0" encoding="UTF-8" standalone="no"?>
<!-- Created with Inkscape (http://www.inkscape.org/) -->

<svg
   xmlns:dc="http://purl.org/dc/elements/1.1/"
   xmlns:cc="http://creativecommons.org/ns#"
   xmlns:rdf="http://www.w3.org/1999/02/22-rdf-syntax-ns#"
   xmlns:svg="http://www.w3.org/2000/svg"
   xmlns="http://www.w3.org/2000/svg"
   xmlns:sodipodi="http://sodipodi.sourceforge.net/DTD/sodipodi-0.dtd"
   xmlns:inkscape="http://www.inkscape.org/namespaces/inkscape"
   version="1.1"
   id="svg26744"
   xml:space="preserve"
   width="666.66669"
   height="666.66669"
   viewBox="0 0 666.66669 666.66669"
   sodipodi:docname="cricket-low-poly-publicdomainvectors.org.svg"
   inkscape:version="0.92.4 (5da689c313, 2019-01-14)"><metadata
     id="metadata26750"><rdf:RDF><cc:Work
         rdf:about=""><dc:format>image/svg+xml</dc:format><dc:type
           rdf:resource="http://purl.org/dc/dcmitype/StillImage" /><dc:title></dc:title></cc:Work></rdf:RDF></metadata><defs
     id="defs26748"><clipPath
       clipPathUnits="userSpaceOnUse"
       id="clipPath26760"><path
         d="M 0,500 H 500 V 0 H 0 Z"
         id="path26758"
         inkscape:connector-curvature="0" /></clipPath></defs><sodipodi:namedview
     pagecolor="#ffffff"
     bordercolor="#666666"
     borderopacity="1"
     objecttolerance="10"
     gridtolerance="10"
     guidetolerance="10"
     inkscape:pageopacity="0"
     inkscape:pageshadow="2"
     inkscape:window-width="797"
     inkscape:window-height="480"
     id="namedview26746"
     showgrid="false"
     inkscape:zoom="0.35399999"
     inkscape:cx="333.33334"
     inkscape:cy="333.33334"
     inkscape:window-x="0"
     inkscape:window-y="0"
     inkscape:window-maximized="0"
     inkscape:current-layer="g26752" /><g
     id="g26752"
     inkscape:groupmode="layer"
     inkscape:label="cricket-low-poly-publicdomainvectors.org"
     transform="matrix(1.3333333,0,0,-1.3333333,0,666.66667)"><g
       id="g26754"><g
         id="g26756"
         clip-path="url(#clipPath26760)"><path
           d="m 452.561,32.717 c 1.749,0 10.943,3.947 10.943,3.947 l 6.934,12.8 -19.729,-16.766 c 0.969,0.012 1.626,0.019 1.852,0.019"
           style="fill:#8eb1d5;fill-opacity:1;fill-rule:nonzero;stroke:none"
           id="path26762"
           inkscape:connector-curvature="0" /><path
           d="m 486.233,61.152 3.61,4.8 -10.221,-8.684 z"
           style="fill:#8eb1d5;fill-opacity:1;fill-rule:nonzero;stroke:none"
           id="path26764"
           inkscape:connector-curvature="0" /><path
           d="m 450.709,32.698 19.729,16.766 3.969,7.324 h 4.4 l 0.815,0.48 10.221,8.684 4.271,5.682 -3.52,12.706 -13.545,9.602 -13.545,6.123 -38.691,21.116 6.125,-41.594 4.13,-1.83 c 0,0 1.723,-4.356 1.723,-6.545 0,-2.184 0.905,-13.559 1.341,-15.307 0.313,-1.259 -1.651,-4.573 -2.775,-6.329 l 2.513,-17.058 c 5.074,0.074 10.158,0.147 12.839,0.18"
           style="fill:#a6c6dd;fill-opacity:1;fill-rule:nonzero;stroke:none"
           id="path26766"
           inkscape:connector-curvature="0" /><path
           d="m 292.919,55.909 5.705,-5.7 12.869,6.251 -16.168,2.276 c -1.364,-1.634 -2.406,-2.827 -2.406,-2.827"
           style="fill:#b19e9b;fill-opacity:1;fill-rule:nonzero;stroke:none"
           id="path26768"
           inkscape:connector-curvature="0" /><path
           d="m 384.193,395.915 0.562,0.201 v -0.383 l 14.974,-4.86 0.33,10.942 c 0,0 -5.248,5.236 -9.182,7.424 -3.933,2.184 -10.485,-0.422 -10.485,-0.422 l -8.659,-4.444 -2.48,-3.608 z"
           style="fill:#fbb081;fill-opacity:1;fill-rule:nonzero;stroke:none"
           id="path26770"
           inkscape:connector-curvature="0" /><path
           d="m 371.733,404.373 -2.621,-1.345 0.141,-2.263 z"
           style="fill:#f59f6d;fill-opacity:1;fill-rule:nonzero;stroke:none"
           id="path26772"
           inkscape:connector-curvature="0" /><path
           d="m 423.916,121.67 -22.304,-29.088 29.326,-12.995 -6.125,41.594 z"
           style="fill:#aebfc4;fill-opacity:1;fill-rule:nonzero;stroke:none"
           id="path26774"
           inkscape:connector-curvature="0" /><path
           d="m 435.357,49.576 c -0.436,-0.682 -0.746,-1.13 -0.746,-1.13 0,0 -3.912,-4.799 -5.661,-4.364 -1.749,0.439 -7.005,-4.816 -7.005,-4.816 l 1.301,-6.966 c 0,0 7.299,0.11 14.624,0.218 z"
           style="fill:#aebfc4;fill-opacity:1;fill-rule:nonzero;stroke:none"
           id="path26776"
           inkscape:connector-curvature="0" /><path
           d="m 384.755,391.752 c 0,0 -1.283,-3.925 -1.723,-7.423 -0.439,-3.499 2.176,-3.947 4.361,-4.822 2.188,-0.874 12.244,8.303 12.244,8.303 l 0.092,3.063 -14.974,4.86 z"
           style="fill:#ffcd89;fill-opacity:1;fill-rule:nonzero;stroke:none"
           id="path26778"
           inkscape:connector-curvature="0" /><path
           d="m 367.901,388.026 10.728,5.906 5.564,1.983 -14.94,4.85 z"
           style="fill:#ffcd89;fill-opacity:1;fill-rule:nonzero;stroke:none"
           id="path26780"
           inkscape:connector-curvature="0" /><path
           d="m 422.784,122.288 -54.241,-8.469 -0.064,-5.925 5.368,-3.008 27.765,-12.304 22.304,29.088 z"
           style="fill:#becfc4;fill-opacity:1;fill-rule:nonzero;stroke:none"
           id="path26782"
           inkscape:connector-curvature="0" /><path
           d="m 422.784,122.288 -6.535,3.566 -13.128,12.245 -25.822,11.567 -8.756,-35.847 z"
           style="fill:#d0e2ce;fill-opacity:1;fill-rule:nonzero;stroke:none"
           id="path26784"
           inkscape:connector-curvature="0" /><path
           d="m 345.532,245.808 -5.816,23.497 -2.602,13.123 c 0,0 -0.021,10.495 -0.457,14.428 -0.074,0.662 -0.395,1.584 -0.878,2.661 l -27.321,-43.289 z"
           style="fill:#ffeea6;fill-opacity:1;fill-rule:nonzero;stroke:none"
           id="path26786"
           inkscape:connector-curvature="0" /><path
           d="m 351.081,167.408 -4.781,14.886 -2.18,13.967 9.933,2.787 -45.595,57.18 -18.119,-70.021 5.222,-5.249 4.038,-12.975 51.684,-1.795 c -0.133,0.745 -0.202,1.22 -0.202,1.22"
           style="fill:#f0e8c3;fill-opacity:1;fill-rule:nonzero;stroke:none"
           id="path26788"
           inkscape:connector-curvature="0" /><path
           d="m 354.053,199.048 0.97,0.272 1.763,8.763 -5.705,15.304 -5.549,22.421 -37.074,10.42 z"
           style="fill:#f6f2c7;fill-opacity:1;fill-rule:nonzero;stroke:none"
           id="path26790"
           inkscape:connector-curvature="0" /><path
           d="m 309.195,393.479 c -1.923,2.371 -4.382,5.164 -5.566,6.382 l -6.526,-7.849 z"
           style="fill:#fba66a;fill-opacity:1;fill-rule:nonzero;stroke:none"
           id="path26792"
           inkscape:connector-curvature="0" /><path
           d="m 369.112,403.028 -5.819,-2.987 5.96,0.724 z"
           style="fill:#fba66a;fill-opacity:1;fill-rule:nonzero;stroke:none"
           id="path26794"
           inkscape:connector-curvature="0" /><path
           d="m 377.299,149.666 -11.332,5.076 c 0,0 -9.181,1.728 -11.365,2.607 -1.688,0.672 -2.869,6.309 -3.319,8.839 l -51.684,1.795 2.084,-6.697 2.724,-5.137 64.136,-42.33 z"
           style="fill:#d9dfc3;fill-opacity:1;fill-rule:nonzero;stroke:none"
           id="path26796"
           inkscape:connector-curvature="0" /><path
           d="m 308.458,256.228 27.321,43.289 c -2.386,5.32 -8.729,14.405 -8.729,14.405 l -15.76,13.967 1.197,2.052 -48.029,-12.209 z"
           style="fill:#fedc8c;fill-opacity:1;fill-rule:nonzero;stroke:none"
           id="path26798"
           inkscape:connector-curvature="0" /><path
           d="m 303.629,399.861 c -0.066,0.07 -0.13,0.134 -0.189,0.193 -0.68,0.68 -3.941,2.158 -7.671,3.709 l 1.334,-11.751 z"
           style="fill:#f39359;fill-opacity:1;fill-rule:nonzero;stroke:none"
           id="path26800"
           inkscape:connector-curvature="0" /><path
           d="m 363.669,110.589 4.81,-2.695 0.064,5.925 z"
           style="fill:#b8b9b0;fill-opacity:1;fill-rule:nonzero;stroke:none"
           id="path26802"
           inkscape:connector-curvature="0" /><path
           d="m 301.683,67.691 c 0,-1.145 -3.763,-5.848 -6.358,-8.955 l 16.168,-2.276 0.676,0.328 c 0,0 11.831,4.8 13.58,4.364 1.749,-0.439 10.908,16.182 10.908,16.182 l 9.181,-0.879 16.643,20.973 -3.058,3.516 -5.36,3.278 -52.175,-34.58 c -0.128,-0.952 -0.205,-1.651 -0.205,-1.951"
           style="fill:#b8b9b0;fill-opacity:1;fill-rule:nonzero;stroke:none"
           id="path26804"
           inkscape:connector-curvature="0" /><path
           d="m 358.57,114.195 1.275,-1.464 3.824,-2.142 4.874,3.23 z"
           style="fill:#c2beab;fill-opacity:1;fill-rule:nonzero;stroke:none"
           id="path26806"
           inkscape:connector-curvature="0" /><path
           d="m 302.983,100.944 1.336,-16.182 c 0,0 -1.81,-10.52 -2.431,-15.12 l 52.175,34.58 -8.225,5.028 -10.04,5.803 -49.176,1.85 z"
           style="fill:#c2beab;fill-opacity:1;fill-rule:nonzero;stroke:none"
           id="path26808"
           inkscape:connector-curvature="0" /><path
           d="m 304.407,156.149 8.641,-16.288 6.122,-7.001 37.611,-16.609 1.789,-2.056 9.973,-0.376 z"
           style="fill:#d3ceb3;fill-opacity:1;fill-rule:nonzero;stroke:none"
           id="path26810"
           inkscape:connector-curvature="0" /><path
           d="m 285.958,117.553 0.664,-0.65 49.176,-1.85 -9.627,5.562 c 0,0 -21.86,20.565 -23.609,23.189 -1.749,2.619 -14.874,14.876 -16.182,17.06 -0.385,0.64 -1.182,1.73 -2.213,3.07 l -13.066,-37.459 z"
           style="fill:#d3ceb3;fill-opacity:1;fill-rule:nonzero;stroke:none"
           id="path26812"
           inkscape:connector-curvature="0" /><path
           d="m 313.549,379.751 c 0.286,2.072 -0.968,8.561 -1.802,10.238 -0.329,0.656 -1.333,1.989 -2.552,3.49 l -12.092,-1.467 z"
           style="fill:#ffbe77;fill-opacity:1;fill-rule:nonzero;stroke:none"
           id="path26814"
           inkscape:connector-curvature="0" /><path
           d="m 367.901,388.026 1.352,12.739 -5.96,-0.724 -17.872,-9.173 -26.817,-14.887 11.646,-8.681 z"
           style="fill:#ffbe77;fill-opacity:1;fill-rule:nonzero;stroke:none"
           id="path26816"
           inkscape:connector-curvature="0" /><path
           d="m 288.372,372.147 0.033,-0.327 4.936,-8.034 -3.406,-2.795 -4.31,4.905 -21.167,-48.164 48.029,12.209 1.862,3.191 -3.481,8.342 2.18,7.422 0.457,9.186 16.745,9.218 -11.646,8.681 -4.677,-2.596 c 0,0 -0.862,4.373 -0.422,6.122 0.017,0.072 0.031,0.155 0.044,0.244 l -16.446,12.261 z"
           style="fill:#fec576;fill-opacity:1;fill-rule:nonzero;stroke:none"
           id="path26818"
           inkscape:connector-curvature="0" /><path
           d="m 295.769,403.763 c -5.858,2.435 -12.875,5.054 -12.875,5.054 l -20.147,8.86 34.356,-25.665 z"
           style="fill:#f08049;fill-opacity:1;fill-rule:nonzero;stroke:none"
           id="path26820"
           inkscape:connector-curvature="0" /><path
           d="m 297.103,392.012 -34.356,25.665 -27.533,12.108 -14.002,2.185 -12.667,-5.248 c 0,0 -6.583,-3.068 -7.462,-4.817 -0.225,-0.45 -1.579,-0.638 -3.466,-0.669 l 0.368,-28.988 z"
           style="fill:#f6814b;fill-opacity:1;fill-rule:nonzero;stroke:none"
           id="path26822"
           inkscape:connector-curvature="0" /><path
           d="m 238.747,256.609 -7.472,-8.725 -1.322,-2.054 31.859,-44.175 5.775,4.67 7.427,4.821 6.54,-11.365 0.461,-10.943 6.122,-0.417 2.202,-2.214 18.119,70.021 z"
           style="fill:#fbdaa5;fill-opacity:1;fill-rule:nonzero;stroke:none"
           id="path26824"
           inkscape:connector-curvature="0" /><path
           d="m 264.458,317.732 -20.287,-29.24 c 1.293,-2.073 7.233,-6.516 7.233,-6.516 l 5.24,-5.244 -7.419,-7.884 -10.478,-12.239 69.711,-0.381 z"
           style="fill:#ffd58a;fill-opacity:1;fill-rule:nonzero;stroke:none"
           id="path26826"
           inkscape:connector-curvature="0" /><path
           d="m 278.803,373.657 -3.714,9.604 12.666,-4.936 0.617,-6.178 8.731,19.865 -99.118,0.236 66.473,-74.516 21.167,48.164 z"
           style="fill:#fda95e;fill-opacity:1;fill-rule:nonzero;stroke:none"
           id="path26828"
           inkscape:connector-curvature="0" /><path
           d="m 223.392,235.64 -17.484,-29.315 c 0,0 -5.243,-12.221 -5.243,-14.846 0,-2.624 5.243,-11.822 5.243,-11.822 l 8.273,-7.527 66.174,-3.389 c -1.831,2.267 -3.762,4.62 -5.341,6.552 -3.938,4.812 -11.361,9.594 -13.545,10.903 -2.189,1.315 -10.526,5.283 -10.526,5.283 l 7.462,7.423 3.407,2.753 -31.859,44.175 z"
           style="fill:#f5c7a7;fill-opacity:1;fill-rule:nonzero;stroke:none"
           id="path26830"
           inkscape:connector-curvature="0" /><path
           d="m 220.332,166.534 12.702,-9.185 5.664,-6.122 21.008,-17.911 11.395,-6.841 13.066,37.459 c -1.079,1.402 -2.416,3.079 -3.812,4.807 l -66.174,3.389 z"
           style="fill:#e0c2a4;fill-opacity:1;fill-rule:nonzero;stroke:none"
           id="path26832"
           inkscape:connector-curvature="0" /><path
           d="m 208.168,311.89 32.293,-17.67 c 0,0 3.041,-3.494 3.481,-5.243 0.036,-0.141 0.117,-0.305 0.229,-0.485 l 20.287,29.24 z"
           style="fill:#ffc078;fill-opacity:1;fill-rule:nonzero;stroke:none"
           id="path26834"
           inkscape:connector-curvature="0" /><path
           d="m 197.77,307.16 9.084,4.593 -10.761,-1.117 z"
           style="fill:#ffc078;fill-opacity:1;fill-rule:nonzero;stroke:none"
           id="path26836"
           inkscape:connector-curvature="0" /><path
           d="m 197.985,392.248 -1.892,-81.612 10.761,1.117 0.812,0.411 0.502,-0.274 56.29,5.842 z"
           style="fill:#fda962;fill-opacity:1;fill-rule:nonzero;stroke:none"
           id="path26838"
           inkscape:connector-curvature="0" /><path
           d="m 165.69,336.652 20.546,-11.822 9.186,-5.243 -12.321,-6.808 12.992,-2.143 1.892,81.612 -35.724,-53.587 z"
           style="fill:#fa9859;fill-opacity:1;fill-rule:nonzero;stroke:none"
           id="path26840"
           inkscape:connector-curvature="0" /><path
           d="m 197.985,392.248 -0.368,28.988 c -5.442,-0.09 -15.318,1.126 -15.318,1.126 l -1.301,8.307 v 14.478 l -22.755,-30.663 z"
           style="fill:#f0673f;fill-opacity:1;fill-rule:nonzero;stroke:none"
           id="path26842"
           inkscape:connector-curvature="0" /><path
           d="m 165.694,283.315 c 0,0 -0.354,1.183 -0.817,2.564 l -5.467,-4.336 z"
           style="fill:#ffb477;fill-opacity:1;fill-rule:nonzero;stroke:none"
           id="path26844"
           inkscape:connector-curvature="0" /><path
           d="m 181.059,298.713 16.711,8.447 -1.677,3.476 z"
           style="fill:#ffb477;fill-opacity:1;fill-rule:nonzero;stroke:none"
           id="path26846"
           inkscape:connector-curvature="0" /><path
           d="m 183.101,312.779 -24.869,-13.739 -8.306,4.822 -3.178,0.794 -4.085,-27.7 6.841,0.655 8.306,3.481 1.6,0.451 5.467,4.336 c -0.428,1.273 -0.947,2.715 -1.366,3.555 -0.875,1.753 2.601,1.722 2.601,1.722 l 14.947,7.557 15.034,11.923 z"
           style="fill:#faa568;fill-opacity:1;fill-rule:nonzero;stroke:none"
           id="path26848"
           inkscape:connector-curvature="0" /><path
           d="m 180.998,445.147 v 1.247 l -6.584,15.764 -6.539,10.061 -14.891,7.427 c 0,0 -16.155,1.766 -17.905,2.636 -0.109,0.058 -0.236,0.053 -0.382,0.04 v 0.004 c -0.062,-0.004 -0.13,-0.014 -0.199,-0.03 l 23.745,-67.812 z"
           style="fill:#e44d32;fill-opacity:1;fill-rule:nonzero;stroke:none"
           id="path26850"
           inkscape:connector-curvature="0" /><path
           d="m 151.399,345.022 10.862,-6.361 35.724,53.587 -39.742,22.236 z"
           style="fill:#f6804a;fill-opacity:1;fill-rule:nonzero;stroke:none"
           id="path26852"
           inkscape:connector-curvature="0" /><path
           d="m 136.343,325.973 -23.322,14.12 -0.25,-0.839 c 0,0 -6.988,-15.276 -7.423,-17.025 -0.223,-0.899 -2.868,-8.477 -5.389,-16.174 l 31.817,8.073 z"
           style="fill:#e97f4c;fill-opacity:1;fill-rule:nonzero;stroke:none"
           id="path26854"
           inkscape:connector-curvature="0" /><path
           d="m 134.498,482.296 c -2.358,-0.502 -8.182,-7.01 -8.182,-7.01 0,0 -8.289,-14.459 -8.724,-16.648 -0.435,-2.184 1.722,-19.663 1.722,-19.663 l 0.228,-0.874 38.701,-23.617 z"
           style="fill:#db392a;fill-opacity:1;fill-rule:nonzero;stroke:none"
           id="path26856"
           inkscape:connector-curvature="0" /><path
           d="m 119.542,438.101 3.293,-12.671 5.661,-11.366 4.208,-6.96 25.539,7.38 z"
           style="fill:#dd4731;fill-opacity:1;fill-rule:nonzero;stroke:none"
           id="path26858"
           inkscape:connector-curvature="0" /><path
           d="m 139.444,334.016 6.121,14.423 5.834,-3.417 6.844,69.462 -25.539,-7.38 5.857,-9.687 -9.604,-14.425 -10.942,-16.186 -2.642,-18.788 -2.352,-7.925 23.322,-14.12 z"
           style="fill:#ed7041;fill-opacity:1;fill-rule:nonzero;stroke:none"
           id="path26860"
           inkscape:connector-curvature="0" /><path
           d="m 141.206,306.042 -5.248,4.364 -5.277,0.879 1.095,2.843 -31.817,-8.073 c -1.256,-3.835 -2.48,-7.697 -3.361,-10.779 l 26.543,-16.758 8.419,9.158 c 0,0 3.08,-3.072 3.519,-4.822 0.441,-1.75 5.244,-6.122 5.244,-6.122 l 2.34,0.224 4.085,27.7 z"
           style="fill:#f59a61;fill-opacity:1;fill-rule:nonzero;stroke:none"
           id="path26862"
           inkscape:connector-curvature="0" /><path
           d="m 95.288,289.434 c 0,-3.934 5.66,-10.522 5.66,-10.522 l 2.181,-0.879 9.642,-2.179 8.728,0.878 1.642,1.786 -26.543,16.758 c -0.795,-2.785 -1.31,-4.933 -1.31,-5.842"
           style="fill:#f19866;fill-opacity:1;fill-rule:nonzero;stroke:none"
           id="path26864"
           inkscape:connector-curvature="0" /></g></g></g></svg>